<svg width="78" height="20" viewBox="0 0 78 20" fill="none" xmlns="http://www.w3.org/2000/svg">
<path d="M4.51599 19.2H0.644989V0.671021H9.10999C12.697 0.671021 14.865 2.97102 14.865 6.60602C14.865 8.28302 13.936 12.516 8.95499 12.516H4.51599V19.2ZM8.103 9.31602C10.993 9.31602 10.993 7.25103 10.993 6.42603C10.993 4.62003 9.986 3.87102 7.586 3.87102H4.51498V9.31602H8.10199H8.103Z" fill="white"/>
<path d="M17.548 5.47101H21.006V7.845H21.057C21.806 6.451 22.631 5.10901 24.825 5.10901C25.0591 5.11337 25.2928 5.13073 25.525 5.16101V8.826C25.1828 8.78232 24.8378 8.76493 24.493 8.774C21.68 8.774 21.164 10.529 21.164 12.051V19.2H17.548V5.47101Z" fill="white"/>
<path d="M33.317 19.562C29.627 19.562 26.298 17.291 26.298 12.336C26.298 7.381 29.627 5.10999 33.317 5.10999C37.007 5.10999 40.336 7.381 40.336 12.336C40.336 17.291 37.007 19.562 33.317 19.562ZM33.317 8.155C30.53 8.155 30.017 10.581 30.017 12.336C30.017 14.091 30.533 16.517 33.317 16.517C36.101 16.517 36.617 14.091 36.617 12.336C36.617 10.581 36.104 8.155 33.317 8.155Z" fill="white"/>
<path d="M47.045 19.201H43.432V8.052H41.445V5.47099H43.432V4.36099C43.432 1.52199 44.98 0.437988 47.458 0.437988C48.516 0.437988 49.006 0.46399 49.316 0.48999V3.40599H48.31C47.071 3.40599 47.045 3.793 47.045 4.929V5.47099H49.394V8.052H47.045V19.201Z" fill="white"/>
<path d="M55.175 3.842H51.562V0.487H55.175V3.842ZM55.175 5.468V19.197H51.562V5.472L55.175 5.468Z" fill="white"/>
<path d="M62.348 19.2H58.735V0.671021H62.348V19.2Z" fill="white"/>
<path d="M77.601 15.175C77.2466 16.4859 76.4542 17.636 75.3556 18.4342C74.2569 19.2323 72.9182 19.6303 71.562 19.562C67.691 19.562 64.723 17.704 64.723 12.052C64.723 10.4 65.291 5.10999 71.304 5.10999C74.014 5.10999 77.756 6.39999 77.756 12.671V13.316H68.3361C68.4361 14.348 68.646 16.671 71.562 16.671C72.0589 16.7034 72.5531 16.575 72.9714 16.3049C73.3898 16.0348 73.7101 15.6372 73.885 15.171L77.601 15.175ZM74.0389 10.969C73.8329 8.74999 72.413 8.07899 71.252 8.07899C69.552 8.07899 68.645 9.16299 68.439 10.969H74.0389Z" fill="white"/>
</svg>
