<svg width="96" height="31" viewBox="0 0 96 31" fill="none" xmlns="http://www.w3.org/2000/svg">
<path d="M0.351074 23.333V0.568024H7.23007L11.3601 16.1L15.4441 0.568024H22.3441V23.333H18.0681V5.41302L13.5491 23.333H9.12407L4.62407 5.41302V23.333H0.351074Z" fill="white"/>
<path d="M30.1339 11.872L26.1739 11.158C26.4996 9.74392 27.3142 8.49022 28.4739 7.61802C29.9359 6.75468 31.625 6.35411 33.3189 6.46902C34.8008 6.38781 36.283 6.62303 37.6669 7.15902C38.505 7.51863 39.2086 8.13302 39.6779 8.91502C40.1584 10.1559 40.3572 11.488 40.2599 12.815L40.2139 17.909C40.1858 18.9822 40.2561 20.0557 40.4239 21.116C40.5907 21.8837 40.8538 22.6273 41.2069 23.329H36.8899C36.7769 23.039 36.6359 22.609 36.4709 22.04C36.3979 21.781 36.3469 21.61 36.3159 21.527C35.6266 22.214 34.8155 22.7668 33.9239 23.157C33.0645 23.522 32.1396 23.7071 31.2059 23.701C29.7387 23.783 28.2977 23.2869 27.1919 22.319C26.7129 21.8746 26.3342 21.3329 26.0812 20.7304C25.8282 20.1279 25.7067 19.4783 25.7249 18.825C25.7099 17.9483 25.941 17.085 26.3919 16.333C26.8373 15.6023 27.488 15.0191 28.2629 14.656C29.3732 14.1739 30.5392 13.832 31.7339 13.638C33.1769 13.4122 34.5959 13.0537 35.9729 12.567V12.132C36.0057 11.8058 35.9672 11.4764 35.8599 11.1667C35.7527 10.8569 35.5794 10.5741 35.3519 10.338C34.651 9.90515 33.8263 9.71699 33.0069 9.80302C32.3686 9.76591 31.7344 9.92579 31.1899 10.261C30.68 10.6761 30.3111 11.2389 30.1339 11.872ZM35.9729 15.413C35.0997 15.6802 34.2136 15.9032 33.3179 16.081C32.4909 16.2086 31.6891 16.4654 30.9419 16.842C30.6813 17.0051 30.4662 17.2317 30.3169 17.5005C30.1675 17.7693 30.0888 18.0715 30.0879 18.379C30.0855 18.676 30.145 18.9702 30.2626 19.243C30.3802 19.5157 30.5533 19.7609 30.7709 19.963C31.0013 20.1851 31.2739 20.3586 31.5727 20.4732C31.8714 20.5878 32.1901 20.6411 32.5099 20.63C33.3244 20.6209 34.1143 20.3491 34.7619 19.855C35.2597 19.5029 35.6257 18.9947 35.8019 18.411C35.947 17.7115 36.0045 16.9967 35.9729 16.283V15.413Z" fill="white"/>
<path d="M44.1571 24.419L49.1411 25.019C49.1512 25.2473 49.2072 25.4713 49.3058 25.6775C49.4045 25.8837 49.5437 26.0679 49.7151 26.219C50.3024 26.5757 50.987 26.7387 51.6721 26.685C52.5564 26.7399 53.4397 26.5634 54.2351 26.173C54.6415 25.9159 54.948 25.5279 55.1041 25.073C55.2725 24.4205 55.3399 23.746 55.3041 23.073V20.66C54.7678 21.4806 54.0354 22.1545 53.1733 22.621C52.3112 23.0876 51.3464 23.3319 50.3661 23.332C49.3207 23.3558 48.2869 23.1095 47.3644 22.6171C46.442 22.1247 45.6621 21.4028 45.1001 20.521C44.0388 18.8773 43.5079 16.9473 43.5791 14.992C43.5791 12.228 44.2441 10.1163 45.5741 8.65701C46.192 7.95303 46.9562 7.39242 47.8133 7.01433C48.6703 6.63625 49.5995 6.4498 50.5361 6.46801C51.5337 6.46436 52.5166 6.70784 53.3971 7.17672C54.2776 7.6456 55.0283 8.32526 55.5821 9.15501V6.84101H59.6701V21.641C59.7275 23.1098 59.5653 24.579 59.1891 26C58.9333 26.8561 58.4691 27.6354 57.8381 28.268C57.1709 28.8664 56.3777 29.3069 55.5171 29.557C54.3236 29.8981 53.085 30.0553 51.8441 30.023C49.0494 30.023 47.0671 29.544 45.8971 28.586C45.3411 28.1576 44.8929 27.6052 44.5882 26.9729C44.2835 26.3406 44.1307 25.6458 44.1421 24.944C44.1411 24.8 44.1471 24.626 44.1571 24.419ZM48.0571 14.745C47.9452 16.1051 48.3043 17.4622 49.0741 18.589C49.3703 18.9713 49.7507 19.2802 50.1857 19.4916C50.6206 19.703 51.0985 19.8113 51.5821 19.808C52.0967 19.813 52.6059 19.7034 53.0729 19.4872C53.5399 19.271 53.9529 18.9536 54.2821 18.558C55.0874 17.5 55.4786 16.1842 55.3821 14.858C55.4882 13.505 55.1143 12.1578 54.3261 11.053C54.0046 10.6566 53.5969 10.3386 53.1341 10.1234C52.6713 9.90819 52.1654 9.80135 51.6551 9.81101C51.1593 9.80158 50.6681 9.90667 50.2195 10.1181C49.771 10.3295 49.3773 10.6416 49.0691 11.03C48.3111 12.1136 47.9523 13.4265 48.0541 14.745H48.0571Z" fill="white"/>
<path d="M66.8 11.05C65.8371 10.7035 65.0074 10.0635 64.4277 9.22024C63.848 8.37699 63.5477 7.37306 63.569 6.35001C63.5473 5.56227 63.6948 4.77904 64.0015 4.05315C64.3082 3.32725 64.767 2.67555 65.347 2.14201C66.753 0.954951 68.5636 0.357624 70.4 0.475009C72.2308 0.360534 74.0355 0.955745 75.439 2.13701C76.023 2.66815 76.4856 3.31902 76.7952 4.04522C77.1048 4.77142 77.2541 5.55585 77.233 6.34501C77.2493 7.34587 76.9624 8.32824 76.41 9.16301C75.8395 10.0029 75.0368 10.6586 74.1 11.05C75.2635 11.4803 76.2681 12.2551 76.98 13.271C77.6446 14.2671 77.9886 15.4427 77.966 16.64C78.003 17.5868 77.8434 18.5311 77.4973 19.4132C77.1512 20.2952 76.626 21.096 75.955 21.765C75.2401 22.4358 74.3976 22.956 73.4777 23.2948C72.5578 23.6336 71.5791 23.784 70.6 23.737C68.7398 23.8045 66.9132 23.2289 65.428 22.107C64.6313 21.4839 63.9946 20.6799 63.5707 19.7617C63.1467 18.8435 62.9476 17.8375 62.99 16.827C62.9798 15.6333 63.2965 14.4595 63.906 13.433C64.5863 12.3456 65.6022 11.5091 66.8 11.05ZM67.3 16.407C67.2388 17.4275 67.5692 18.4329 68.224 19.218C68.5123 19.5435 68.868 19.8024 69.2663 19.9768C69.6647 20.1512 70.0962 20.2369 70.531 20.228C70.9518 20.2381 71.3698 20.1565 71.7559 19.9889C72.1421 19.8212 72.4871 19.5714 72.767 19.257C73.4044 18.4686 73.7205 17.4685 73.652 16.457C73.6966 15.516 73.3739 14.5945 72.752 13.887C72.4633 13.5709 72.11 13.3206 71.7161 13.1531C71.3222 12.9856 70.8969 12.9047 70.469 12.916C70.0113 12.884 69.5529 12.968 69.1364 13.1603C68.7198 13.3526 68.3585 13.6469 68.086 14.016C67.5733 14.708 67.2954 15.5458 67.293 16.407H67.3ZM67.7 6.65501C67.6781 7.02633 67.7323 7.3982 67.859 7.74792C67.9857 8.09763 68.1823 8.41785 68.437 8.68901C68.6983 8.93666 69.007 9.1289 69.3445 9.25418C69.682 9.37946 70.0414 9.43518 70.401 9.41801C70.7649 9.43532 71.1285 9.37896 71.4701 9.25232C71.8117 9.12568 72.1243 8.93136 72.389 8.68101C72.6458 8.40939 72.8443 8.08814 72.9724 7.73698C73.1006 7.38583 73.1555 7.01218 73.134 6.63901C73.1581 6.2794 73.1053 5.91878 72.979 5.58119C72.8528 5.24361 72.656 4.93683 72.4018 4.68131C72.1476 4.4258 71.8419 4.22742 71.505 4.09942C71.168 3.97142 70.8077 3.91673 70.448 3.93901C70.0815 3.92141 69.7153 3.97836 69.3716 4.10642C69.0278 4.23447 68.7136 4.43097 68.448 4.68401C68.196 4.94454 67.9997 5.25366 67.8711 5.59253C67.7425 5.93139 67.6843 6.2929 67.7 6.65501Z" fill="white"/>
<path d="M84.4839 11.05C83.521 10.7037 82.6912 10.0637 82.1117 9.22041C81.5321 8.37709 81.2321 7.37304 81.2539 6.35001C81.2321 5.56234 81.3794 4.77914 81.6859 4.05323C81.9925 3.32733 82.4511 2.6756 83.0309 2.14201C84.4922 1.0625 86.2611 0.47998 88.0779 0.47998C89.8947 0.47998 91.6636 1.0625 93.1249 2.14201C93.7087 2.67332 94.171 3.32425 94.4804 4.05042C94.7899 4.7766 94.9391 5.56095 94.9179 6.35001C94.9346 7.35077 94.648 8.33316 94.0959 9.16801C93.5245 10.0087 92.7203 10.6644 91.7819 11.055C92.9458 11.4851 93.9508 12.2599 94.6629 13.276C95.3275 14.2721 95.6716 15.4477 95.6489 16.645C95.686 17.5919 95.5264 18.5363 95.1801 19.4184C94.8338 20.3005 94.3083 21.1012 93.6369 21.77C92.9229 22.4403 92.0815 22.9602 91.1626 23.2989C90.2437 23.6377 89.2661 23.7884 88.2879 23.742C86.4281 23.8095 84.6019 23.2338 83.1169 22.112C82.3203 21.4889 81.6836 20.6849 81.2596 19.7667C80.8356 18.8485 80.6366 17.8425 80.6789 16.832C80.6687 15.6383 80.9855 14.4645 81.5949 13.438C82.2728 12.3491 83.287 11.5108 84.4839 11.05ZM84.9839 16.407C84.9222 17.4276 85.2527 18.4331 85.9079 19.218C86.1963 19.5435 86.552 19.8024 86.9503 19.9768C87.3487 20.1512 87.7802 20.2369 88.2149 20.228C88.6356 20.2384 89.0536 20.1569 89.4396 19.9892C89.8256 19.8215 90.1704 19.5716 90.4499 19.257C91.0881 18.469 91.4046 17.4687 91.3359 16.457C91.381 15.516 91.0582 14.5943 90.4359 13.887C90.1475 13.5709 89.7944 13.3206 89.4006 13.153C89.0069 12.9855 88.5817 12.9046 88.1539 12.916C87.6961 12.8841 87.2376 12.9682 86.8209 13.1605C86.4042 13.3527 86.0427 13.647 85.7699 14.016C85.2591 14.7087 84.9827 15.5463 84.9809 16.407H84.9839ZM85.3839 6.65501C85.3619 7.02627 85.4158 7.39811 85.5424 7.74783C85.6689 8.09755 85.8654 8.4178 86.1199 8.68901C86.3814 8.93664 86.6903 9.12886 87.028 9.25413C87.3657 9.37941 87.7252 9.43515 88.0849 9.41801C88.4488 9.4352 88.8125 9.37879 89.154 9.25216C89.4956 9.12552 89.8082 8.93126 90.0729 8.68101C90.3293 8.40918 90.5276 8.08786 90.6555 7.73675C90.7835 7.38563 90.8384 7.01209 90.8169 6.63901C90.8414 6.27941 90.7888 5.91874 90.6627 5.58108C90.5367 5.24342 90.34 4.93655 90.0858 4.68098C89.8317 4.42541 89.5259 4.22702 89.189 4.09907C88.852 3.97112 88.4917 3.91655 88.1319 3.93901C87.7655 3.92152 87.3993 3.97853 87.0556 4.10658C86.7118 4.23463 86.3976 4.43107 86.1319 4.68401C85.8803 4.94473 85.6843 5.2539 85.5559 5.59274C85.4274 5.93158 85.3683 6.29299 85.3839 6.65501Z" fill="white"/>
</svg>
