<svg width="160" height="18" viewBox="0 0 160 18" fill="none" xmlns="http://www.w3.org/2000/svg">
<path d="M0 17.709V0.303019H6.442C7.31181 0.284178 8.18165 0.339714 9.042 0.469019C9.79704 0.578567 10.5178 0.856414 11.151 1.28202C11.7448 1.71438 12.2164 2.29318 12.52 2.96202C12.8702 3.70427 13.0473 4.51635 13.038 5.33702C13.0738 6.72088 12.5778 8.06581 11.652 9.09502C10.726 10.1204 9.05533 10.633 6.64 10.633H2.26V17.709H0ZM2.26 8.57902H6.675C7.77778 8.68391 8.88152 8.38899 9.785 7.74802C10.0989 7.44829 10.3438 7.0838 10.5027 6.67988C10.6616 6.27597 10.7306 5.8423 10.705 5.40902C10.7236 4.74444 10.5341 4.09064 10.163 3.53902C9.82556 3.03717 9.31977 2.67255 8.737 2.51102C8.04209 2.37989 7.33469 2.32689 6.628 2.35302H2.26V8.57902Z" fill="#333333"/>
<path d="M15.983 17.709V0.303009H18.243V7.45301H27.124V0.303009H29.384V17.709H27.124V9.50901H18.247V17.709H15.987H15.983Z" fill="#333333"/>
<path d="M32.934 9.23101C32.7886 6.76038 33.607 4.32962 35.217 2.45001C35.967 1.64346 36.8814 1.00735 37.8984 0.584673C38.9154 0.161998 40.0113 -0.0373832 41.112 1.08629e-05C42.6127 -0.0206119 44.0895 0.378007 45.376 1.15101C46.6363 1.91227 47.6435 3.02905 48.271 4.36101C48.9555 5.82088 49.2976 7.41783 49.271 9.03001C49.2992 10.6685 48.9402 12.2905 48.223 13.764C47.5798 15.097 46.5432 16.2007 45.253 16.926C43.9855 17.6389 42.5541 18.009 41.1 18C39.5795 18.024 38.0839 17.6121 36.79 16.813C35.5365 16.036 34.5367 14.9104 33.913 13.574C33.2635 12.2187 32.9288 10.734 32.934 9.23101ZM35.264 9.26701C35.1622 11.07 35.7564 12.8433 36.924 14.221C37.4603 14.7936 38.1086 15.2498 38.8288 15.5611C39.5489 15.8724 40.3254 16.0322 41.1099 16.0305C41.8944 16.0288 42.6702 15.8657 43.389 15.5513C44.1078 15.2369 44.7542 14.778 45.288 14.203C46.4691 12.743 47.0574 10.892 46.936 9.01801C46.9656 7.74657 46.7271 6.48316 46.236 5.31001C45.8132 4.3094 45.101 3.45796 44.1909 2.86498C43.2807 2.27199 42.2141 1.96451 41.128 1.98201C40.3623 1.97132 39.6022 2.11441 38.8928 2.40282C38.1834 2.69122 37.5391 3.11907 36.998 3.66101C35.8393 4.78034 35.26 6.64901 35.26 9.26701H35.264Z" fill="#333333"/>
<path d="M56.049 17.709V2.35301H50.422V0.303009H63.958V2.35301H58.308V17.709H56.049Z" fill="#333333"/>
<path d="M65.159 9.23101C65.0136 6.76038 65.8319 4.32962 67.4419 2.45001C68.1919 1.64346 69.1063 1.00735 70.1233 0.584673C71.1404 0.161998 72.2363 -0.0373832 73.337 1.08629e-05C74.8377 -0.0205589 76.3144 0.378056 77.6009 1.15101C78.8613 1.91218 79.8686 3.02899 80.496 4.36101C81.1806 5.82084 81.5227 7.41782 81.496 9.03001C81.524 10.6686 81.1645 12.2906 80.447 13.764C79.8039 15.0971 78.7673 16.2008 77.477 16.926C76.2098 17.6387 74.7788 18.0089 73.325 18C71.8058 18.0232 70.3117 17.6114 69.019 16.813C67.7655 16.036 66.7657 14.9104 66.142 13.574C65.491 12.219 65.155 10.7343 65.159 9.23101ZM67.4889 9.26701C67.3872 11.07 67.9814 12.8433 69.149 14.221C69.6852 14.7936 70.3336 15.2498 71.0538 15.5611C71.7739 15.8724 72.5504 16.0322 73.3349 16.0305C74.1194 16.0288 74.8952 15.8657 75.614 15.5513C76.3328 15.2369 76.9792 14.778 77.513 14.203C78.694 12.743 79.2824 10.892 79.161 9.01801C79.1905 7.74658 78.952 6.48317 78.461 5.31001C78.0382 4.3094 77.326 3.45796 76.4158 2.86498C75.5057 2.27199 74.4391 1.96451 73.353 1.98201C72.5872 1.97132 71.8271 2.11441 71.1177 2.40282C70.4083 2.69122 69.764 3.11907 69.223 3.66101C68.067 4.78034 67.4889 6.64901 67.4889 9.26701Z" fill="#333333"/>
<path d="M92.85 17.709V0.303002H99.257C100.328 0.261363 101.397 0.441105 102.396 0.831002C103.167 1.16839 103.814 1.73692 104.248 2.458C104.682 3.14681 104.914 3.94372 104.918 4.758C104.918 5.49953 104.713 6.22659 104.324 6.858C103.89 7.54884 103.268 8.10096 102.53 8.449C103.476 8.69961 104.313 9.25448 104.912 10.028C105.473 10.7905 105.766 11.7174 105.745 12.664C105.751 13.4507 105.578 14.2285 105.238 14.938C104.954 15.5695 104.525 16.1249 103.986 16.559C103.426 16.9681 102.791 17.2608 102.116 17.42C101.213 17.6311 100.288 17.7288 99.361 17.711H92.85V17.709ZM95.11 7.617H98.803C99.527 7.64724 100.252 7.57997 100.958 7.417C101.476 7.28187 101.934 6.97695 102.258 6.551C102.562 6.10399 102.715 5.57133 102.695 5.031C102.706 4.49398 102.565 3.96483 102.287 3.505C102.022 3.07232 101.608 2.75203 101.122 2.605C100.271 2.40541 99.3957 2.32365 98.522 2.362H95.11V7.617ZM95.11 15.655H99.362C99.8761 15.6687 100.39 15.641 100.9 15.572C101.36 15.4983 101.801 15.3371 102.2 15.097C102.567 14.8555 102.865 14.5217 103.062 14.129C103.294 13.6759 103.41 13.1721 103.4 12.663C103.414 12.0622 103.243 11.4716 102.911 10.971C102.585 10.492 102.107 10.1367 101.554 9.962C100.74 9.738 99.8973 9.63987 99.054 9.671H95.11V15.655Z" fill="#333333"/>
<path d="M108.17 9.23101C108.025 6.76039 108.843 4.32967 110.453 2.45001C111.203 1.64346 112.117 1.00735 113.134 0.584673C114.151 0.161998 115.247 -0.0373832 116.348 1.08629e-05C117.849 -0.0205589 119.325 0.378056 120.612 1.15101C121.872 1.91218 122.88 3.02899 123.507 4.36101C124.192 5.82087 124.534 7.41783 124.507 9.03001C124.535 10.6685 124.176 12.2905 123.459 13.764C122.815 15.0972 121.778 16.2008 120.488 16.926C119.221 17.6387 117.79 18.0089 116.336 18C114.815 18.024 113.32 17.6121 112.026 16.813C110.772 16.036 109.772 14.9104 109.148 13.574C108.499 12.2186 108.164 10.7339 108.17 9.23101ZM110.5 9.26701C110.398 11.07 110.992 12.8433 112.16 14.221C112.696 14.7936 113.345 15.2498 114.065 15.5611C114.785 15.8724 115.561 16.0322 116.346 16.0305C117.13 16.0288 117.906 15.8657 118.625 15.5513C119.344 15.2369 119.99 14.778 120.524 14.203C121.705 12.743 122.293 10.892 122.172 9.01801C122.201 7.74658 121.963 6.48318 121.472 5.31001C121.049 4.3094 120.337 3.45796 119.427 2.86498C118.517 2.27199 117.45 1.96451 116.364 1.98201C115.598 1.97132 114.838 2.11441 114.129 2.40282C113.419 2.69122 112.775 3.11907 112.234 3.66101C111.077 4.78034 110.499 6.64901 110.5 9.26701Z" fill="#333333"/>
<path d="M126.729 9.23101C126.584 6.76039 127.402 4.32967 129.012 2.45001C129.763 1.64318 130.678 1.00693 131.696 0.584261C132.714 0.161591 133.811 -0.0376474 134.912 1.03456e-05C136.413 -0.0204532 137.889 0.378154 139.176 1.15101C140.436 1.91232 141.444 3.02909 142.071 4.36101C142.756 5.8209 143.098 7.41784 143.071 9.03001C143.099 10.6686 142.74 12.2906 142.022 13.764C141.379 15.0971 140.342 16.2008 139.052 16.926C137.784 17.6393 136.351 18.0095 134.896 18C133.375 18.0241 131.879 17.6122 130.585 16.813C129.331 16.036 128.332 14.9104 127.708 13.574C127.058 12.2187 126.724 10.734 126.729 9.23101ZM129.059 9.26701C128.957 11.07 129.551 12.8433 130.719 14.221C131.255 14.7936 131.904 15.2498 132.624 15.5611C133.344 15.8724 134.12 16.0322 134.905 16.0305C135.689 16.0288 136.465 15.8657 137.184 15.5513C137.903 15.2369 138.549 14.778 139.083 14.203C140.264 12.743 140.852 10.892 140.731 9.01801C140.761 7.74658 140.522 6.48317 140.031 5.31001C139.608 4.30948 138.896 3.45812 137.986 2.86515C137.076 2.27218 136.009 1.96465 134.923 1.98201C134.157 1.97145 133.398 2.11461 132.688 2.40301C131.979 2.69141 131.335 3.11919 130.794 3.66101C129.638 4.78034 129.06 6.64901 129.059 9.26701Z" fill="#333333"/>
<path d="M145.881 17.709V0.303009H148.141V8.93501L156.622 0.303009H159.686L152.521 7.35301L160 17.706H157.018L150.937 8.89601L148.137 11.674V17.705H145.877L145.881 17.709Z" fill="#333333"/>
</svg>
