<svg width="180" height="18" viewBox="0 0 180 18" fill="none" xmlns="http://www.w3.org/2000/svg">
<path d="M0 17.7059V0.299998H6.387C7.24884 0.281252 8.11069 0.336775 8.963 0.465949C9.71239 0.575772 10.4272 0.853625 11.054 1.27871C11.6433 1.71268 12.1104 2.29157 12.41 2.95922C12.7575 3.70205 12.9331 4.51356 12.924 5.33353C12.9603 6.7152 12.469 8.05886 11.55 9.09144C10.6333 10.1165 8.97767 10.629 6.583 10.629H2.241V17.7049L0 17.7059ZM2.241 8.57559H6.618C7.71161 8.6807 8.80632 8.38668 9.7 7.74783C10.0121 7.44695 10.2552 7.08201 10.4126 6.67817C10.5701 6.27432 10.6381 5.84116 10.612 5.40851C10.6309 4.7445 10.4433 4.09098 10.075 3.53805C9.74248 3.03679 9.24111 2.67143 8.662 2.50835C7.97353 2.37699 7.27243 2.32367 6.572 2.3494H2.241V8.57559Z" fill="#333333"/>
<path d="M15.8466 17.706V0.300018H18.0876V7.44794H26.8876V0.300018H29.1286V17.706H26.8876V9.50134H18.0876V17.706H15.8466Z" fill="#333333"/>
<path d="M32.6451 9.22831C32.4998 6.76167 33.3106 4.33387 34.9091 2.44929C35.6496 1.64473 36.555 1.0094 37.5636 0.586697C38.5721 0.163995 39.6601 -0.0361269 40.7531 -1.13249e-06C42.2422 -0.020105 43.7068 0.378613 44.9801 1.15066C46.232 1.91449 47.2304 3.03085 47.8501 4.35973C48.528 5.821 48.8658 7.41685 48.8381 9.02737C48.8661 10.6645 48.5099 12.2853 47.7981 13.76C47.1629 15.09 46.135 16.1933 44.8531 16.9211C43.6002 17.6321 42.1828 18.0023 40.7421 17.9948C39.2339 18.0179 37.7511 17.6059 36.4711 16.8081C35.2257 16.0287 34.2343 14.9035 33.6181 13.57C32.973 12.2138 32.6405 10.7301 32.6451 9.22831ZM34.9551 9.2643C34.8534 11.0644 35.442 12.8356 36.6011 14.2169C37.1303 14.7888 37.7723 15.2448 38.4867 15.5562C39.2011 15.8675 39.9723 16.0274 40.7516 16.0257C41.5309 16.024 42.3013 15.8608 43.0144 15.5463C43.7274 15.2319 44.3674 14.7731 44.8941 14.1989C46.0665 12.7353 46.6493 10.8865 46.5281 9.01537C46.5557 7.74447 46.3172 6.48184 45.8281 5.30845C45.4137 4.31098 44.7094 3.46073 43.8065 2.86761C42.9036 2.2745 41.8434 1.9658 40.7631 1.98142C40.0032 1.97169 39.2491 2.11533 38.546 2.40374C37.8429 2.69215 37.2052 3.1194 36.6711 3.65993C35.5271 4.77894 34.9551 6.64706 34.9551 9.2643Z" fill="#333333"/>
<path d="M55.5576 17.706V2.34942H49.9786V0.300018H63.3996V2.34942H57.7996V17.706H55.5576Z" fill="#333333"/>
<path d="M64.5862 9.22832C64.4397 6.76222 65.2491 4.33448 66.8462 2.44929C67.5871 1.64421 68.4931 1.00858 69.5024 0.585859C70.5117 0.163138 71.6005 -0.036701 72.6941 6.07176e-06C74.1832 -0.0200439 75.6479 0.37867 76.9211 1.15067C78.1731 1.9144 79.1715 3.03079 79.7911 4.35974C80.4691 5.82099 80.8069 7.41685 80.7792 9.02738C80.8072 10.6645 80.451 12.2854 79.7392 13.76C79.1041 15.0901 78.0762 16.1934 76.7942 16.9211C75.5413 17.6321 74.1238 18.0023 72.6832 17.9948C71.1743 18.0183 69.6907 17.6063 68.4102 16.8081C67.1648 16.0286 66.1735 14.9035 65.5572 13.5701C64.9127 12.2136 64.5809 10.73 64.5862 9.22832ZM66.8962 9.26431C66.7944 11.0644 67.3831 12.8356 68.5422 14.2169C69.0713 14.7889 69.7133 15.2451 70.4277 15.5565C71.1421 15.8679 71.9133 16.0278 72.6926 16.0261C73.472 16.0245 74.2425 15.8612 74.9555 15.5467C75.6685 15.2322 76.3085 14.7732 76.8351 14.1989C78.0074 12.7353 78.5902 10.8865 78.4692 9.01538C78.4967 7.74448 78.2582 6.48186 77.7692 5.30846C77.3547 4.31099 76.6505 3.46074 75.7476 2.86762C74.8446 2.27451 73.7845 1.96581 72.7042 1.98143C71.9439 1.97143 71.1894 2.11493 70.486 2.40335C69.7825 2.69177 69.1445 3.11917 68.6102 3.65994C67.4675 4.77895 66.8962 6.64707 66.8962 9.26431Z" fill="#333333"/>
<path d="M92.0334 17.7059V0.300006H98.3854C99.4486 0.258593 100.509 0.438689 101.498 0.828851C102.265 1.16745 102.907 1.73586 103.335 2.45538C103.766 3.14527 103.996 3.94148 103.999 4.75471C104 5.49533 103.796 6.22175 103.41 6.8541C102.982 7.54345 102.364 8.09545 101.631 8.44463C102.571 8.69673 103.402 9.25198 103.993 10.0242C104.551 10.7886 104.841 11.7149 104.819 12.6604C104.827 13.4462 104.656 14.2235 104.319 14.9337C104.039 15.564 103.613 16.1192 103.077 16.5543C102.524 16.9628 101.893 17.2556 101.223 17.415C100.329 17.626 99.4114 17.7237 98.4924 17.7059H92.0334ZM94.2745 7.60888H97.9354C98.6535 7.63917 99.3724 7.57191 100.072 7.40894C100.587 7.27272 101.041 6.96743 101.36 6.54219C101.662 6.09433 101.814 5.56222 101.793 5.02263C101.806 4.48667 101.667 3.95801 101.393 3.49707C101.132 3.0655 100.721 2.74522 100.238 2.59734C99.3951 2.39796 98.5282 2.31621 97.6625 2.35441H94.2784L94.2745 7.60888ZM94.2745 15.6465H98.4905C98.9999 15.6602 99.5096 15.6325 100.014 15.5636C100.472 15.4904 100.912 15.3292 101.308 15.0887C101.673 14.8466 101.968 14.5129 102.163 14.121C102.394 13.667 102.509 13.1634 102.498 12.6544C102.512 12.0544 102.343 11.4644 102.013 10.9629C101.691 10.4846 101.217 10.1289 100.667 9.95319C99.8617 9.72944 99.0261 9.63131 98.1904 9.66228H94.2745V15.6465Z" fill="#333333"/>
<path d="M107.219 9.22831C107.074 6.76167 107.884 4.33387 109.483 2.44929C110.223 1.64473 111.129 1.0094 112.137 0.586697C113.146 0.163995 114.234 -0.0361269 115.327 -1.13249e-06C116.816 -0.020105 118.281 0.378613 119.554 1.15066C120.806 1.91439 121.804 3.03078 122.424 4.35973C123.102 5.82098 123.44 7.41684 123.412 9.02737C123.44 10.6645 123.084 12.2854 122.372 13.76C121.737 15.09 120.709 16.1933 119.427 16.9211C118.174 17.6321 116.757 18.0023 115.316 17.9948C113.807 18.0183 112.323 17.6063 111.043 16.8081C109.798 16.0285 108.806 14.9034 108.19 13.57C107.545 12.2137 107.214 10.73 107.219 9.22831ZM109.529 9.2643C109.427 11.0644 110.016 12.8355 111.175 14.2169C111.704 14.7888 112.346 15.2448 113.061 15.5562C113.775 15.8675 114.546 16.0274 115.325 16.0257C116.105 16.024 116.875 15.8608 117.588 15.5463C118.301 15.2319 118.941 14.7731 119.468 14.1989C120.64 12.7353 121.223 10.8865 121.102 9.01537C121.129 7.74448 120.891 6.48186 120.402 5.30845C119.988 4.31146 119.284 3.46154 118.382 2.86846C117.479 2.27539 116.42 1.9664 115.34 1.98142C114.579 1.97055 113.823 2.11364 113.119 2.40208C112.414 2.69053 111.775 3.11838 111.24 3.65993C110.099 4.77894 109.529 6.64706 109.529 9.2643Z" fill="#333333"/>
<path d="M125.611 9.22831C125.466 6.76169 126.277 4.33392 127.876 2.44929C128.616 1.6446 129.522 1.00919 130.53 0.586487C131.539 0.16378 132.627 -0.0362706 133.72 4.88013e-07C135.209 -0.0199957 136.674 0.378715 137.948 1.15067C139.199 1.91449 140.198 3.03085 140.818 4.35973C141.495 5.8211 141.832 7.41693 141.804 9.02737C141.832 10.6645 141.476 12.2853 140.764 13.76C140.129 15.09 139.101 16.1934 137.819 16.9211C136.567 17.6319 135.15 18.0021 133.709 17.9948C132.2 18.0184 130.716 17.6064 129.435 16.8081C128.19 16.0287 127.199 14.9035 126.583 13.5701C125.938 12.2137 125.606 10.73 125.611 9.22831ZM127.922 9.2643C127.82 11.0644 128.408 12.8356 129.568 14.2169C130.097 14.7889 130.739 15.2451 131.453 15.5565C132.167 15.8679 132.939 16.0278 133.718 16.0261C134.497 16.0244 135.268 15.8612 135.981 15.5467C136.694 15.2322 137.334 14.7732 137.86 14.1989C139.033 12.7352 139.616 10.8865 139.495 9.01538C139.522 7.74447 139.284 6.48184 138.794 5.30846C138.38 4.31098 137.676 3.46073 136.773 2.86762C135.87 2.2745 134.81 1.9658 133.73 1.98142C132.969 1.97136 132.215 2.11484 131.511 2.40326C130.808 2.69169 130.17 3.11911 129.636 3.65994C128.494 4.77894 127.922 6.64707 127.922 9.2643Z" fill="#333333"/>
<path d="M144.599 17.706V0.300018H146.84V8.93151L155.249 0.300018H158.287L151.187 7.35297L158.602 17.706H155.645L149.616 8.89651L146.844 11.6747V17.706H144.603H144.599Z" fill="#333333"/>
<path d="M179.995 15.6815V17.7349H168.803C168.786 17.2293 168.868 16.7253 169.045 16.2513C169.366 15.407 169.829 14.6239 170.414 13.936C171.242 12.98 172.153 12.0983 173.134 11.3008C174.512 10.2161 175.764 8.97963 176.865 7.61485C177.45 6.88057 177.789 5.98167 177.835 5.0446C177.843 4.64592 177.769 4.24989 177.617 3.88127C177.465 3.51264 177.238 3.17935 176.951 2.90222C176.646 2.60937 176.286 2.38111 175.89 2.23113C175.495 2.08116 175.074 2.01257 174.651 2.02948C174.209 2.00939 173.767 2.08129 173.354 2.24063C172.941 2.39998 172.565 2.6433 172.251 2.95521C171.619 3.65542 171.291 4.57768 171.339 5.51946L169.202 5.29353C169.247 3.8782 169.839 2.53544 170.854 1.54762C171.927 0.647021 173.301 0.186529 174.7 0.258994C175.403 0.221559 176.107 0.325126 176.77 0.563599C177.432 0.802072 178.04 1.17063 178.558 1.64759C179.021 2.09157 179.386 2.62695 179.631 3.21968C179.876 3.81242 179.994 4.44955 179.979 5.09059C179.977 5.79577 179.836 6.4936 179.563 7.14399C179.219 7.92126 178.753 8.63872 178.183 9.26937C177.183 10.359 176.112 11.3822 174.978 12.3325C173.731 13.4088 172.931 14.139 172.578 14.5228C172.246 14.8772 171.952 15.2652 171.7 15.6805H180L179.995 15.6815Z" fill="#333333"/>
</svg>
